<svg id="Layer_1" enable-background="new 0 0 100 100" viewBox="0 0 100 100" xmlns="http://www.w3.org/2000/svg"><path d="m91.8881683 9.6133022c-1.4827118.008625-2.9018173.6039524-3.9467087 1.655962 0 0-23.4734726 23.4277611-37.7283249 37.67313l-10.0461654-10.0461692c-2.1889725-2.1833687-5.7320404-2.1833687-7.9210167 0-2.1833668 2.1889763-2.1833668 5.7320442 0 7.9210167l14.0204735 14.0204773c2.1890831 2.1831512 5.7319336 2.1831512 7.9210167 0 13.2631111-13.2582588 41.6750298-41.647438 41.6750298-41.647438 2.1833649-2.1889744 2.1833649-5.7320423 0-7.9210167-1.0516892-1.058694-2.4820023-1.6546679-3.9743043-1.6559621z"/><path d="m47.3728905 5.1381006c-24.7120972.0002156-44.8728888 20.1389094-44.8728888 44.8511191 0 24.7117767 20.1607914 44.8726807 44.8728905 44.8726807 20.2792778 0 38.0834465-13.6664276 43.3319588-33.2548599 1.0150299-3.7869339 1.5187225-7.6972046 1.5189362-11.6178207 0-3.0945778-2.5064697-5.6041794-5.6009445-5.6082764-3.0944672.004097-5.6008377 2.5136986-5.6008377 5.6082764-.0002136 2.9406242-.3998642 5.8784485-1.1611099 8.718811-3.9486465 14.7369766-17.231163 24.9519806-32.4880028 24.9521942-18.6502647-.0002136-33.6711082-15.0207367-33.6711082-33.6710052s15.0207338-33.649231 33.6711082-33.649231c2.9409485.0002155 5.8563461.4008389 8.6970329 1.1608982 2.9916191.8021069 6.0671158-.972662 6.8693275-3.9643888.0007553-.0025873.0014038-.0053902.0021553-.0079784.8021088-2.9917269-.9728775-6.0671153-3.9644966-6.8692222-.0026932-.0006466-.0052795-.0015092-.0079765-.0021558-3.7875842-1.0147062-7.6747798-1.5188256-11.5960444-1.5190412z"/></svg>